<svg id="Layer_1" data-name="Layer 1" xmlns="http://www.w3.org/2000/svg" viewBox="0 0 2663.24 2903.86"><defs><style>.cls-1{fill:#29abe2;}</style></defs><path class="cls-1" d="M2500,3951.93a1234.31,1234.31,0,0,1-272.89-30.52A1246.82,1246.82,0,0,1,1973.38,3834a1304.18,1304.18,0,0,1-228.73-138,1377.78,1377.78,0,0,1-198.17-182.38,1446.58,1446.58,0,0,1-157.89-213.48,1500.52,1500.52,0,0,1-119-243.8c-67.17-176.46-101.23-363.62-101.23-556.28,0-195.61,35.07-385.42,104.24-564.14A1498.47,1498.47,0,0,1,1395,1689.41a1442.47,1442.47,0,0,1,162.27-214.93,1374.52,1374.52,0,0,1,196.92-177.56,1301.83,1301.83,0,0,1,226.36-134.26c164.5-76,339.25-114.59,519.41-114.59s354.92,38.55,519.42,114.59a1301.83,1301.83,0,0,1,226.36,134.26,1374.06,1374.06,0,0,1,196.93,177.56A1443.15,1443.15,0,0,1,3605,1689.41a1498.47,1498.47,0,0,1,122.41,246.45c69.17,178.72,104.24,368.53,104.24,564.14,0,195.08-34.88,384.4-103.69,562.7a1497.58,1497.58,0,0,1-121.78,246,1443.11,1443.11,0,0,1-161.47,214.66,1373.77,1373.77,0,0,1-197.15,178.44,1301.57,1301.57,0,0,1-226.79,135C2855.86,3913.17,2680.65,3951.93,2500,3951.93Zm0-2831.86c-694.55,0-1259.61,619-1259.61,1379.93,0,363.2,127.77,706.11,359.77,965.57,239,267.2,558.53,414.36,899.84,414.36,336.88,0,653.47-143.86,891.47-405.09,237.41-260.53,368.16-606.73,368.16-974.84C3759.62,1739.1,3194.55,1120.07,2500,1120.07Z" transform="translate(-1168.38 -1048.07)"/><path class="cls-1" d="M2494.77,2746.79a552.59,552.59,0,1,1,215.75-43.57A550.81,550.81,0,0,1,2494.77,2746.79Zm0-1036.5c-265.92,0-482.25,216.34-482.25,482.25s216.33,482.25,482.25,482.25S2977,2458.45,2977,2192.54,2760.68,1710.29,2494.77,1710.29Z" transform="translate(-1168.38 -1048.07)"/><path class="cls-1" d="M2499,3951.93A1233.84,1233.84,0,0,1,1972.39,3834a1303.89,1303.89,0,0,1-228.74-138,1377.78,1377.78,0,0,1-198.17-182.38l-6.46-37.69a1034.45,1034.45,0,0,1,373.23-460c171.43-117,372.17-178.87,580.52-178.87,210.22,0,412.46,62.88,584.85,181.84a1034.22,1034.22,0,0,1,372.89,466.91l-6.82,37.6a1374.83,1374.83,0,0,1-197.15,178.44,1302,1302,0,0,1-226.8,135C2854.86,3913.17,2679.66,3951.93,2499,3951.93Zm-884.52-469.52c237.21,256.53,550.46,397.52,884.52,397.52,329.64,0,639.86-137.74,876-388.41C3223.84,3136.87,2880,2909,2492.77,2909,2110,2909,1767.67,3133.31,1614.47,3482.41Z" transform="translate(-1168.38 -1048.07)"/></svg>